<svg xmlns="http://www.w3.org/2000/svg" xmlns:xlink="http://www.w3.org/1999/xlink" contentStyleType="text/css" height="366px" preserveAspectRatio="xMidYMid meet" style="width: 100%; height: 100%; background: rgb(255, 255, 255); max-width: 100%; position: absolute; top: 50%; left: 50%; transform: translate(-50%, -50%);" version="1.1" viewBox="0 0 1094 366" width="1094px" zoomAndPan="magnify"><defs/><g><!--class Book--><g id="elem_Book"><rect codeLine="1" fill="#F1F1F1" height="145.7813" id="Book" rx="2.5" ry="2.5" style="stroke:#181818;stroke-width:0.5;" width="185" x="346" y="213.49"/><ellipse cx="416.25" cy="229.49" fill="#ADD1B2" rx="11" ry="11" style="stroke:#181818;stroke-width:1.0;"/><path d="M419.2188,235.1306 Q418.6406,235.4275 418,235.5681 Q417.3594,235.7244 416.6563,235.7244 Q414.1563,235.7244 412.8281,234.0837 Q411.5156,232.4275 411.5156,229.3025 Q411.5156,226.1775 412.8281,224.5212 Q414.1563,222.865 416.6563,222.865 Q417.3594,222.865 418,223.0212 Q418.6563,223.1775 419.2188,223.4744 L419.2188,226.1931 Q418.5938,225.615 418,225.3494 Q417.4063,225.0681 416.7813,225.0681 Q415.4375,225.0681 414.75,226.1462 Q414.0625,227.2087 414.0625,229.3025 Q414.0625,231.3962 414.75,232.4744 Q415.4375,233.5369 416.7813,233.5369 Q417.4063,233.5369 418,233.2712 Q418.5938,232.99 419.2188,232.4119 L419.2188,235.1306 Z " fill="#000000"/><text fill="#000000" font-family="sans-serif" font-size="14" lengthAdjust="spacing" textLength="36" x="436.75" y="234.3367">Book</text><line style="stroke:#181818;stroke-width:0.5;" x1="347" x2="530" y1="245.49" y2="245.49"/><rect fill="none" height="6" style="stroke:#C82930;stroke-width:1.0;" width="6" x="354" y="256.1384"/><text fill="#000000" font-family="sans-serif" font-size="14" lengthAdjust="spacing" textLength="73" x="366" y="262.4851">title: string</text><rect fill="none" height="6" style="stroke:#C82930;stroke-width:1.0;" width="6" x="354" y="272.4353"/><text fill="#000000" font-family="sans-serif" font-size="14" lengthAdjust="spacing" textLength="93" x="366" y="278.782">author: string</text><rect fill="none" height="6" style="stroke:#C82930;stroke-width:1.0;" width="6" x="354" y="288.7322"/><text fill="#000000" font-family="sans-serif" font-size="14" lengthAdjust="spacing" textLength="80" x="366" y="295.0789">ISBN: string</text><rect fill="none" height="6" style="stroke:#C82930;stroke-width:1.0;" width="6" x="354" y="305.0291"/><text fill="#000000" font-family="sans-serif" font-size="14" lengthAdjust="spacing" textLength="112" x="366" y="311.3757">publisher: string</text><rect fill="none" height="6" style="stroke:#C82930;stroke-width:1.0;" width="6" x="354" y="321.3259"/><text fill="#000000" font-family="sans-serif" font-size="14" lengthAdjust="spacing" textLength="89" x="366" y="327.6726">genre: string</text><rect fill="none" height="6" style="stroke:#C82930;stroke-width:1.0;" width="6" x="354" y="337.6228"/><text fill="#000000" font-family="sans-serif" font-size="14" lengthAdjust="spacing" textLength="159" x="366" y="343.9695">availabilityStatus: string</text><line style="stroke:#181818;stroke-width:0.5;" x1="347" x2="530" y1="351.2713" y2="351.2713"/></g><!--class Member--><g id="elem_Member"><rect codeLine="10" fill="#F1F1F1" height="129.4844" id="Member" rx="2.5" ry="2.5" style="stroke:#181818;stroke-width:0.5;" width="205" x="7" y="7"/><ellipse cx="76.75" cy="23" fill="#ADD1B2" rx="11" ry="11" style="stroke:#181818;stroke-width:1.0;"/><path d="M79.7188,28.6406 Q79.1406,28.9375 78.5,29.0781 Q77.8594,29.2344 77.1563,29.2344 Q74.6563,29.2344 73.3281,27.5938 Q72.0156,25.9375 72.0156,22.8125 Q72.0156,19.6875 73.3281,18.0313 Q74.6563,16.375 77.1563,16.375 Q77.8594,16.375 78.5,16.5313 Q79.1563,16.6875 79.7188,16.9844 L79.7188,19.7031 Q79.0938,19.125 78.5,18.8594 Q77.9063,18.5781 77.2813,18.5781 Q75.9375,18.5781 75.25,19.6563 Q74.5625,20.7188 74.5625,22.8125 Q74.5625,24.9063 75.25,25.9844 Q75.9375,27.0469 77.2813,27.0469 Q77.9063,27.0469 78.5,26.7813 Q79.0938,26.5 79.7188,25.9219 L79.7188,28.6406 Z " fill="#000000"/><text fill="#000000" font-family="sans-serif" font-size="14" lengthAdjust="spacing" textLength="57" x="97.25" y="27.8467">Member</text><line style="stroke:#181818;stroke-width:0.5;" x1="8" x2="211" y1="39" y2="39"/><rect fill="none" height="6" style="stroke:#C82930;stroke-width:1.0;" width="6" x="15" y="49.6484"/><text fill="#000000" font-family="sans-serif" font-size="14" lengthAdjust="spacing" textLength="96" x="27" y="55.9951">memberId: int</text><rect fill="none" height="6" style="stroke:#C82930;stroke-width:1.0;" width="6" x="15" y="65.9453"/><text fill="#000000" font-family="sans-serif" font-size="14" lengthAdjust="spacing" textLength="87" x="27" y="72.292">name: string</text><rect fill="none" height="6" style="stroke:#C82930;stroke-width:1.0;" width="6" x="15" y="82.2422"/><text fill="#000000" font-family="sans-serif" font-size="14" lengthAdjust="spacing" textLength="104" x="27" y="88.5889">address: string</text><rect fill="none" height="6" style="stroke:#C82930;stroke-width:1.0;" width="6" x="15" y="98.5391"/><text fill="#000000" font-family="sans-serif" font-size="14" lengthAdjust="spacing" textLength="100" x="27" y="104.8857">contact: string</text><rect fill="none" height="6" style="stroke:#C82930;stroke-width:1.0;" width="6" x="15" y="114.8359"/><text fill="#000000" font-family="sans-serif" font-size="14" lengthAdjust="spacing" textLength="179" x="27" y="121.1826">membershipStatus: string</text><line style="stroke:#181818;stroke-width:0.5;" x1="8" x2="211" y1="128.4844" y2="128.4844"/></g><!--class Librarian--><g id="elem_Librarian"><rect codeLine="18" fill="#F1F1F1" height="113.1875" id="Librarian" rx="2.5" ry="2.5" style="stroke:#181818;stroke-width:0.5;" width="179" x="908" y="229.79"/><ellipse cx="964.75" cy="245.79" fill="#ADD1B2" rx="11" ry="11" style="stroke:#181818;stroke-width:1.0;"/><path d="M967.7188,251.4306 Q967.1406,251.7275 966.5,251.8681 Q965.8594,252.0244 965.1563,252.0244 Q962.6563,252.0244 961.3281,250.3838 Q960.0156,248.7275 960.0156,245.6025 Q960.0156,242.4775 961.3281,240.8213 Q962.6563,239.165 965.1563,239.165 Q965.8594,239.165 966.5,239.3213 Q967.1563,239.4775 967.7188,239.7744 L967.7188,242.4931 Q967.0938,241.915 966.5,241.6494 Q965.9063,241.3681 965.2813,241.3681 Q963.9375,241.3681 963.25,242.4463 Q962.5625,243.5088 962.5625,245.6025 Q962.5625,247.6963 963.25,248.7744 Q963.9375,249.8369 965.2813,249.8369 Q965.9063,249.8369 966.5,249.5713 Q967.0938,249.29 967.7188,248.7119 L967.7188,251.4306 Z " fill="#000000"/><text fill="#000000" font-family="sans-serif" font-size="14" lengthAdjust="spacing" textLength="57" x="985.25" y="250.6367">Librarian</text><line style="stroke:#181818;stroke-width:0.5;" x1="909" x2="1086" y1="261.79" y2="261.79"/><rect fill="none" height="6" style="stroke:#C82930;stroke-width:1.0;" width="6" x="916" y="272.4384"/><text fill="#000000" font-family="sans-serif" font-size="14" lengthAdjust="spacing" textLength="91" x="928" y="278.7851">librarianId: int</text><rect fill="none" height="6" style="stroke:#C82930;stroke-width:1.0;" width="6" x="916" y="288.7353"/><text fill="#000000" font-family="sans-serif" font-size="14" lengthAdjust="spacing" textLength="87" x="928" y="295.082">name: string</text><rect fill="none" height="6" style="stroke:#C82930;stroke-width:1.0;" width="6" x="916" y="305.0322"/><text fill="#000000" font-family="sans-serif" font-size="14" lengthAdjust="spacing" textLength="153" x="928" y="311.3789">employeeCode: string</text><rect fill="none" height="6" style="stroke:#C82930;stroke-width:1.0;" width="6" x="916" y="321.3291"/><text fill="#000000" font-family="sans-serif" font-size="14" lengthAdjust="spacing" textLength="100" x="928" y="327.6757">contact: string</text><line style="stroke:#181818;stroke-width:0.5;" x1="909" x2="1086" y1="334.9775" y2="334.9775"/></g><!--class Admin--><g id="elem_Admin"><rect codeLine="25" fill="#F1F1F1" height="113.1875" id="Admin" rx="2.5" ry="2.5" style="stroke:#181818;stroke-width:0.5;" width="126" x="934.5" y="15.15"/><ellipse cx="972.45" cy="31.15" fill="#ADD1B2" rx="11" ry="11" style="stroke:#181818;stroke-width:1.0;"/><path d="M975.4188,36.7906 Q974.8406,37.0875 974.2,37.2281 Q973.5594,37.3844 972.8563,37.3844 Q970.3563,37.3844 969.0281,35.7437 Q967.7156,34.0875 967.7156,30.9625 Q967.7156,27.8375 969.0281,26.1812 Q970.3563,24.525 972.8563,24.525 Q973.5594,24.525 974.2,24.6812 Q974.8563,24.8375 975.4188,25.1344 L975.4188,27.8531 Q974.7938,27.275 974.2,27.0094 Q973.6063,26.7281 972.9813,26.7281 Q971.6375,26.7281 970.95,27.8062 Q970.2625,28.8687 970.2625,30.9625 Q970.2625,33.0562 970.95,34.1344 Q971.6375,35.1969 972.9813,35.1969 Q973.6063,35.1969 974.2,34.9312 Q974.7938,34.65 975.4188,34.0719 L975.4188,36.7906 Z " fill="#000000"/><text fill="#000000" font-family="sans-serif" font-size="14" lengthAdjust="spacing" textLength="43" x="991.55" y="35.9967">Admin</text><line style="stroke:#181818;stroke-width:0.5;" x1="935.5" x2="1059.5" y1="47.15" y2="47.15"/><rect fill="none" height="6" style="stroke:#C82930;stroke-width:1.0;" width="6" x="942.5" y="57.7984"/><text fill="#000000" font-family="sans-serif" font-size="14" lengthAdjust="spacing" textLength="80" x="954.5" y="64.1451">adminId: int</text><rect fill="none" height="6" style="stroke:#C82930;stroke-width:1.0;" width="6" x="942.5" y="74.0953"/><text fill="#000000" font-family="sans-serif" font-size="14" lengthAdjust="spacing" textLength="87" x="954.5" y="80.442">name: string</text><rect fill="none" height="6" style="stroke:#C82930;stroke-width:1.0;" width="6" x="942.5" y="90.3922"/><text fill="#000000" font-family="sans-serif" font-size="14" lengthAdjust="spacing" textLength="74" x="954.5" y="96.7389">role: string</text><rect fill="none" height="6" style="stroke:#C82930;stroke-width:1.0;" width="6" x="942.5" y="106.6891"/><text fill="#000000" font-family="sans-serif" font-size="14" lengthAdjust="spacing" textLength="100" x="954.5" y="113.0357">contact: string</text><line style="stroke:#181818;stroke-width:0.5;" x1="935.5" x2="1059.5" y1="120.3375" y2="120.3375"/></g><!--class Fine--><g id="elem_Fine"><rect codeLine="32" fill="#F1F1F1" height="113.1875" id="Fine" rx="2.5" ry="2.5" style="stroke:#181818;stroke-width:0.5;" width="136" x="41.5" y="229.79"/><ellipse cx="90.75" cy="245.79" fill="#ADD1B2" rx="11" ry="11" style="stroke:#181818;stroke-width:1.0;"/><path d="M93.7188,251.4306 Q93.1406,251.7275 92.5,251.8681 Q91.8594,252.0244 91.1563,252.0244 Q88.6563,252.0244 87.3281,250.3838 Q86.0156,248.7275 86.0156,245.6025 Q86.0156,242.4775 87.3281,240.8213 Q88.6563,239.165 91.1563,239.165 Q91.8594,239.165 92.5,239.3213 Q93.1563,239.4775 93.7188,239.7744 L93.7188,242.4931 Q93.0938,241.915 92.5,241.6494 Q91.9063,241.3681 91.2813,241.3681 Q89.9375,241.3681 89.25,242.4463 Q88.5625,243.5088 88.5625,245.6025 Q88.5625,247.6963 89.25,248.7744 Q89.9375,249.8369 91.2813,249.8369 Q91.9063,249.8369 92.5,249.5713 Q93.0938,249.29 93.7188,248.7119 L93.7188,251.4306 Z " fill="#000000"/><text fill="#000000" font-family="sans-serif" font-size="14" lengthAdjust="spacing" textLength="29" x="111.25" y="250.6367">Fine</text><line style="stroke:#181818;stroke-width:0.5;" x1="42.5" x2="176.5" y1="261.79" y2="261.79"/><rect fill="none" height="6" style="stroke:#C82930;stroke-width:1.0;" width="6" x="49.5" y="272.4384"/><text fill="#000000" font-family="sans-serif" font-size="14" lengthAdjust="spacing" textLength="63" x="61.5" y="278.7851">fineId: int</text><rect fill="none" height="6" style="stroke:#C82930;stroke-width:1.0;" width="6" x="49.5" y="288.7353"/><text fill="#000000" font-family="sans-serif" font-size="14" lengthAdjust="spacing" textLength="91" x="61.5" y="295.082">amount: float</text><rect fill="none" height="6" style="stroke:#C82930;stroke-width:1.0;" width="6" x="49.5" y="305.0322"/><text fill="#000000" font-family="sans-serif" font-size="14" lengthAdjust="spacing" textLength="110" x="61.5" y="311.3789">issueDate: date</text><rect fill="none" height="6" style="stroke:#C82930;stroke-width:1.0;" width="6" x="49.5" y="321.3291"/><text fill="#000000" font-family="sans-serif" font-size="14" lengthAdjust="spacing" textLength="100" x="61.5" y="327.6757">dueDate: date</text><line style="stroke:#181818;stroke-width:0.5;" x1="42.5" x2="176.5" y1="334.9775" y2="334.9775"/></g><!--class Library--><g id="elem_Library"><rect fill="#F1F1F1" height="48" id="Library" rx="2.5" ry="2.5" style="stroke:#181818;stroke-width:0.5;" width="76" x="609.5" y="47.75"/><ellipse cx="624.5" cy="63.75" fill="#ADD1B2" rx="11" ry="11" style="stroke:#181818;stroke-width:1.0;"/><path d="M627.4688,69.3906 Q626.8906,69.6875 626.25,69.8281 Q625.6094,69.9844 624.9063,69.9844 Q622.4063,69.9844 621.0781,68.3438 Q619.7656,66.6875 619.7656,63.5625 Q619.7656,60.4375 621.0781,58.7813 Q622.4063,57.125 624.9063,57.125 Q625.6094,57.125 626.25,57.2813 Q626.9063,57.4375 627.4688,57.7344 L627.4688,60.4531 Q626.8438,59.875 626.25,59.6094 Q625.6563,59.3281 625.0313,59.3281 Q623.6875,59.3281 623,60.4063 Q622.3125,61.4688 622.3125,63.5625 Q622.3125,65.6563 623,66.7344 Q623.6875,67.7969 625.0313,67.7969 Q625.6563,67.7969 626.25,67.5313 Q626.8438,67.25 627.4688,66.6719 L627.4688,69.3906 Z " fill="#000000"/><text fill="#000000" font-family="sans-serif" font-size="14" lengthAdjust="spacing" textLength="44" x="638.5" y="68.5967">Library</text><line style="stroke:#181818;stroke-width:0.5;" x1="610.5" x2="684.5" y1="79.75" y2="79.75"/><line style="stroke:#181818;stroke-width:0.5;" x1="610.5" x2="684.5" y1="87.75" y2="87.75"/></g><g id="elem_GMN12"><path d="M247,51.61 L247,67.75 L212.38,71.75 L247,75.75 L247,91.8756 A0,0 0 0 0 247,91.8756 L574,91.8756 A0,0 0 0 0 574,91.8756 L574,61.61 L564,51.61 L247,51.61 A0,0 0 0 0 247,51.61 " fill="#FEFFDD" style="stroke:#181818;stroke-width:0.5;"/><path d="M564,51.61 L564,61.61 L574,61.61 L564,51.61 " fill="#FEFFDD" style="stroke:#181818;stroke-width:0.5;"/><text fill="#000000" font-family="sans-serif" font-size="13" lengthAdjust="spacing" textLength="306" x="253" y="68.6769">Members can borrow books and are responsible</text><text fill="#000000" font-family="sans-serif" font-size="13" lengthAdjust="spacing" textLength="301" x="253" y="83.8097">for paying fines associated with overdue books.</text></g><g id="elem_GMN15"><path d="M566,258.68 L566,314.0784 A0,0 0 0 0 566,314.0784 L873,314.0784 A0,0 0 0 0 873,314.0784 L873,290.38 L907.84,286.38 L873,282.38 L873,268.68 L863,258.68 L566,258.68 A0,0 0 0 0 566,258.68 " fill="#FEFFDD" style="stroke:#181818;stroke-width:0.5;"/><path d="M863,258.68 L863,268.68 L873,268.68 L863,258.68 " fill="#FEFFDD" style="stroke:#181818;stroke-width:0.5;"/><text fill="#000000" font-family="sans-serif" font-size="13" lengthAdjust="spacing" textLength="286" x="572" y="275.7469">Librarians manage book inventory and assist</text><text fill="#000000" font-family="sans-serif" font-size="13" lengthAdjust="spacing" textLength="274" x="572" y="290.8797">members. They depend on the information</text><text fill="#000000" font-family="sans-serif" font-size="13" lengthAdjust="spacing" textLength="206" x="572" y="306.0125">from Book and Member entities.</text></g><!--link Member to Book--><g id="link_Member_Book"><path codeLine="39" d="M208.66,136.83 C252.17,164.96 302.97,197.79 345.73,225.43 " fill="none" id="Member-Book" style="stroke:#181818;stroke-width:1.0;"/><text fill="#000000" font-family="sans-serif" font-size="13" lengthAdjust="spacing" textLength="50" x="275.5" y="179.5569">borrows</text><text fill="#000000" font-family="sans-serif" font-size="13" lengthAdjust="spacing" textLength="8" x="210.4734" y="156.3894">1</text><text fill="#000000" font-family="sans-serif" font-size="13" lengthAdjust="spacing" textLength="36" x="301.9415" y="217.6886">many</text></g><!--reverse link Library to Book--><g id="link_Library_Book"><path codeLine="40" d="M619.8766,105.2406 C609.3466,117.4606 603.88,123.46 591.5,136.49 C567.24,162.01 539.92,189.1 515.15,213.07 " fill="none" id="Library-backto-Book" style="stroke:#181818;stroke-width:1.0;"/><polygon fill="none" points="627.71,96.15,620.7631,98.0842,619.8766,105.2406,626.8235,103.3064,627.71,96.15" style="stroke:#181818;stroke-width:1.0;"/><text fill="#000000" font-family="sans-serif" font-size="13" lengthAdjust="spacing" textLength="8" x="613.9112" y="116.0087">1</text><text fill="#000000" font-family="sans-serif" font-size="13" lengthAdjust="spacing" textLength="36" x="484.7401" y="202.441">many</text></g><!--reverse link Admin to Librarian--><g id="link_Admin_Librarian"><path codeLine="41" d="M997.5,146.61 C997.5,177.74 997.5,198.39 997.5,229.52 " fill="none" id="Admin-backto-Librarian" style="stroke:#181818;stroke-width:1.0;"/><polygon fill="none" points="997.5,128.61,991.5,146.61,1003.5,146.61,997.5,128.61" style="stroke:#181818;stroke-width:1.0;"/></g><!--reverse link Member to Fine--><g id="link_Member_Fine"><path codeLine="42" d="M109.5,148.83 C109.5,178.3 109.5,200.94 109.5,229.35 " fill="none" id="Member-backto-Fine" style="stroke:#181818;stroke-width:1.0;"/><polygon fill="#181818" points="109.5,136.83,105.5,142.83,109.5,148.83,113.5,142.83,109.5,136.83" style="stroke:#181818;stroke-width:1.0;"/><text fill="#000000" font-family="sans-serif" font-size="13" lengthAdjust="spacing" textLength="40" x="110.5" y="179.5569">issues</text><text fill="#000000" font-family="sans-serif" font-size="13" lengthAdjust="spacing" textLength="8" x="101.0875" y="156.3894">1</text><text fill="#000000" font-family="sans-serif" font-size="13" lengthAdjust="spacing" textLength="36" x="71.3063" y="218.5599">many</text></g><!--SRC=[ZLB1ZjGm3BtdAwmv8irAN4TSM13IIi1b-G6tSQVM9d4LfxEgW7_7RJhTxKYmzD0ch_Pxpozf0wh2lSWJ_7HWpx5m2NG2BPdJkK8ubbxo7djulF- -HuQn2QmztHIUAULRlWjom8O3b-cnO1br-__RkNQnz8rYG_bgAYwx1ty2JgL22UCjhVUPLFTWAwbWM_PWfTEUXx_9V-KcOsPCLmVX2hnXWk8GP2Bw99x-xMJJ-kWZRpeuRzxGo1B-b_iB9xfITxRUCMEKCLbJ5mHNY5L7-ep5-BszA-Xta76lXtDuVu3Z4GuHqtIeb-W4ZUGip-fgWjDI9FigLoV-yClWBUZNfEzUwfS1pFFiIvrBKWWod_i2qgsNPErKQEsughnzv4a1amVCra0wI59k0hbECWmuMKem1s95gjAoJURXcKiFSg5i4rUAEqV6CQkkse6wHVh5zxPICCjuhfsMyeLI4KjWSQ7AMjnwyUxWHqyJU1fcTabGUh86inQni2JNPOarqBbvJSRek32zylG7]--></g></svg>