<svg xmlns="http://www.w3.org/2000/svg" xmlns:xlink="http://www.w3.org/1999/xlink" contentStyleType="text/css" height="1157px" preserveAspectRatio="xMidYMid meet" style="width: 100%; height: 100%; max-width: 100%; position: absolute; top: 50%; left: 50%; transform: translate(-50%, -50%);" version="1.1" viewBox="0 0 529 1157" width="529px" zoomAndPan="magnify"><defs><linearGradient id="g1jcefcxnt8pjk0" x1="50%" x2="50%" y1="0%" y2="100%"><stop offset="0%" stop-color="#F4F4F4"/><stop offset="100%" stop-color="#F4F4F4"/></linearGradient></defs><g><!--class Book--><g id="elem_Book"><rect codeLine="3" fill="url(#g1jcefcxnt8pjk0)" height="255.6328" id="Book" style="stroke:#C6C6C6;stroke-width:1.0;" width="190" x="7" y="292.03"/><rect fill="url(#g1jcefcxnt8pjk0)" height="42.8047" style="stroke:#C6C6C6;stroke-width:1.0;" width="190" x="7" y="292.03"/><ellipse cx="74" cy="313.4323" fill="#ADD1B2" rx="10" ry="10" style="stroke:#181818;stroke-width:1.0;"/><path d="M75.8281,317.6823 Q75.4219,317.8855 74.9688,317.9948 Q74.5156,318.1042 74.0313,318.1042 Q72.25,318.1042 71.3125,316.948 Q70.3906,315.7761 70.3906,313.573 Q70.3906,311.3542 71.3125,310.198 Q72.25,309.0261 74.0313,309.0261 Q74.5156,309.0261 74.9688,309.1355 Q75.4375,309.2292 75.8281,309.448 L75.8281,311.3698 Q75.3906,310.9636 74.9688,310.7761 Q74.5469,310.573 74.1094,310.573 Q73.1563,310.573 72.6719,311.3386 Q72.1875,312.0886 72.1875,313.573 Q72.1875,315.0417 72.6719,315.7917 Q73.1563,316.5417 74.1094,316.5417 Q74.5469,316.5417 74.9688,316.3542 Q75.3906,316.1667 75.8281,315.7605 L75.8281,317.6823 Z " fill="#000000"/><text fill="#262626" font-family="sans-serif" font-size="11" lengthAdjust="spacing" textLength="28" x="103" y="317.2404">Book</text><line style="stroke:#C6C6C6;stroke-width:1.0;" x1="8" x2="196" y1="334.8347" y2="334.8347"/><rect fill="none" height="6" style="stroke:#C82930;stroke-width:1.0;" width="6" x="15" y="353.737"/><text fill="#262626" font-family="sans-serif" font-size="11" lengthAdjust="spacing" textLength="59" x="36" y="359.0451">String title</text><rect fill="none" height="6" style="stroke:#C82930;stroke-width:1.0;" width="6" x="15" y="386.5417"/><text fill="#262626" font-family="sans-serif" font-size="11" lengthAdjust="spacing" textLength="75" x="36" y="391.8498">String author</text><rect fill="none" height="6" style="stroke:#C82930;stroke-width:1.0;" width="6" x="15" y="419.3464"/><text fill="#262626" font-family="sans-serif" font-size="11" lengthAdjust="spacing" textLength="65" x="36" y="424.6545">String ISBN</text><rect fill="none" height="6" style="stroke:#C82930;stroke-width:1.0;" width="6" x="15" y="452.1511"/><text fill="#262626" font-family="sans-serif" font-size="11" lengthAdjust="spacing" textLength="91" x="36" y="457.4592">String publisher</text><rect fill="none" height="6" style="stroke:#C82930;stroke-width:1.0;" width="6" x="15" y="484.9558"/><text fill="#262626" font-family="sans-serif" font-size="11" lengthAdjust="spacing" textLength="71" x="36" y="490.2639">String genre</text><rect fill="none" height="6" style="stroke:#C82930;stroke-width:1.0;" width="6" x="15" y="517.7605"/><text fill="#262626" font-family="sans-serif" font-size="11" lengthAdjust="spacing" textLength="145" x="36" y="523.0686">boolean availabilityStatus</text><line style="stroke:#C6C6C6;stroke-width:1.0;" x1="8" x2="196" y1="539.6628" y2="539.6628"/></g><!--class Member--><g id="elem_Member"><rect codeLine="12" fill="url(#g1jcefcxnt8pjk0)" height="222.8281" id="Member" style="stroke:#C6C6C6;stroke-width:1.0;" width="192" x="88" y="642.66"/><rect fill="url(#g1jcefcxnt8pjk0)" height="42.8047" style="stroke:#C6C6C6;stroke-width:1.0;" width="192" x="88" y="642.66"/><ellipse cx="147" cy="664.0623" fill="#ADD1B2" rx="10" ry="10" style="stroke:#181818;stroke-width:1.0;"/><path d="M148.8281,668.3123 Q148.4219,668.5155 147.9688,668.6248 Q147.5156,668.7342 147.0313,668.7342 Q145.25,668.7342 144.3125,667.578 Q143.3906,666.4061 143.3906,664.203 Q143.3906,661.9842 144.3125,660.828 Q145.25,659.6561 147.0313,659.6561 Q147.5156,659.6561 147.9688,659.7655 Q148.4375,659.8592 148.8281,660.078 L148.8281,661.9998 Q148.3906,661.5936 147.9688,661.4061 Q147.5469,661.203 147.1094,661.203 Q146.1563,661.203 145.6719,661.9686 Q145.1875,662.7186 145.1875,664.203 Q145.1875,665.6717 145.6719,666.4217 Q146.1563,667.1717 147.1094,667.1717 Q147.5469,667.1717 147.9688,666.9842 Q148.3906,666.7967 148.8281,666.3905 L148.8281,668.3123 Z " fill="#000000"/><text fill="#262626" font-family="sans-serif" font-size="11" lengthAdjust="spacing" textLength="46" x="176" y="667.8704">Member</text><line style="stroke:#C6C6C6;stroke-width:1.0;" x1="89" x2="279" y1="685.4647" y2="685.4647"/><rect fill="none" height="6" style="stroke:#C82930;stroke-width:1.0;" width="6" x="96" y="704.367"/><text fill="#262626" font-family="sans-serif" font-size="11" lengthAdjust="spacing" textLength="96" x="117" y="709.6751">String memberId</text><rect fill="none" height="6" style="stroke:#C82930;stroke-width:1.0;" width="6" x="96" y="737.1717"/><text fill="#262626" font-family="sans-serif" font-size="11" lengthAdjust="spacing" textLength="70" x="117" y="742.4798">String name</text><rect fill="none" height="6" style="stroke:#C82930;stroke-width:1.0;" width="6" x="96" y="769.9764"/><text fill="#262626" font-family="sans-serif" font-size="11" lengthAdjust="spacing" textLength="85" x="117" y="775.2845">String address</text><rect fill="none" height="6" style="stroke:#C82930;stroke-width:1.0;" width="6" x="96" y="802.7811"/><text fill="#262626" font-family="sans-serif" font-size="11" lengthAdjust="spacing" textLength="79" x="117" y="808.0892">String contact</text><rect fill="none" height="6" style="stroke:#C82930;stroke-width:1.0;" width="6" x="96" y="835.5858"/><text fill="#262626" font-family="sans-serif" font-size="11" lengthAdjust="spacing" textLength="147" x="117" y="840.8939">String membershipStatus</text><line style="stroke:#C6C6C6;stroke-width:1.0;" x1="89" x2="279" y1="857.4881" y2="857.4881"/></g><!--class Librarian--><g id="elem_Librarian"><rect codeLine="20" fill="url(#g1jcefcxnt8pjk0)" height="190.0234" id="Librarian" style="stroke:#C6C6C6;stroke-width:1.0;" width="167" x="215.5" y="7"/><rect fill="url(#g1jcefcxnt8pjk0)" height="42.8047" style="stroke:#C6C6C6;stroke-width:1.0;" width="167" x="215.5" y="7"/><ellipse cx="260" cy="28.4023" fill="#ADD1B2" rx="10" ry="10" style="stroke:#181818;stroke-width:1.0;"/><path d="M261.8281,32.6523 Q261.4219,32.8555 260.9688,32.9648 Q260.5156,33.0742 260.0313,33.0742 Q258.25,33.0742 257.3125,31.918 Q256.3906,30.7461 256.3906,28.543 Q256.3906,26.3242 257.3125,25.168 Q258.25,23.9961 260.0313,23.9961 Q260.5156,23.9961 260.9688,24.1055 Q261.4375,24.1992 261.8281,24.418 L261.8281,26.3398 Q261.3906,25.9336 260.9688,25.7461 Q260.5469,25.543 260.1094,25.543 Q259.1563,25.543 258.6719,26.3086 Q258.1875,27.0586 258.1875,28.543 Q258.1875,30.0117 258.6719,30.7617 Q259.1563,31.5117 260.1094,31.5117 Q260.5469,31.5117 260.9688,31.3242 Q261.3906,31.1367 261.8281,30.7305 L261.8281,32.6523 Z " fill="#000000"/><text fill="#262626" font-family="sans-serif" font-size="11" lengthAdjust="spacing" textLength="50" x="289" y="32.2104">Librarian</text><line style="stroke:#C6C6C6;stroke-width:1.0;" x1="216.5" x2="381.5" y1="49.8047" y2="49.8047"/><rect fill="none" height="6" style="stroke:#C82930;stroke-width:1.0;" width="6" x="223.5" y="68.707"/><text fill="#262626" font-family="sans-serif" font-size="11" lengthAdjust="spacing" textLength="95" x="244.5" y="74.0151">String librarianId</text><rect fill="none" height="6" style="stroke:#C82930;stroke-width:1.0;" width="6" x="223.5" y="101.5117"/><text fill="#262626" font-family="sans-serif" font-size="11" lengthAdjust="spacing" textLength="70" x="244.5" y="106.8198">String name</text><rect fill="none" height="6" style="stroke:#C82930;stroke-width:1.0;" width="6" x="223.5" y="134.3164"/><text fill="#262626" font-family="sans-serif" font-size="11" lengthAdjust="spacing" textLength="122" x="244.5" y="139.6245">String employeeCode</text><rect fill="none" height="6" style="stroke:#C82930;stroke-width:1.0;" width="6" x="223.5" y="167.1211"/><text fill="#262626" font-family="sans-serif" font-size="11" lengthAdjust="spacing" textLength="79" x="244.5" y="172.4292">String contact</text><line style="stroke:#C6C6C6;stroke-width:1.0;" x1="216.5" x2="381.5" y1="189.0234" y2="189.0234"/></g><!--class Admin--><g id="elem_Admin"><rect codeLine="27" fill="url(#g1jcefcxnt8pjk0)" height="124.4141" id="Admin" style="stroke:#C6C6C6;stroke-width:1.0;" width="128" x="394" y="357.64"/><rect fill="url(#g1jcefcxnt8pjk0)" height="42.8047" style="stroke:#C6C6C6;stroke-width:1.0;" width="128" x="394" y="357.64"/><ellipse cx="427.35" cy="379.0423" fill="#ADD1B2" rx="10" ry="10" style="stroke:#181818;stroke-width:1.0;"/><path d="M429.1781,383.2923 Q428.7719,383.4955 428.3188,383.6048 Q427.8656,383.7142 427.3813,383.7142 Q425.6,383.7142 424.6625,382.558 Q423.7406,381.3861 423.7406,379.183 Q423.7406,376.9642 424.6625,375.808 Q425.6,374.6361 427.3813,374.6361 Q427.8656,374.6361 428.3188,374.7455 Q428.7875,374.8392 429.1781,375.058 L429.1781,376.9798 Q428.7406,376.5736 428.3188,376.3861 Q427.8969,376.183 427.4594,376.183 Q426.5063,376.183 426.0219,376.9486 Q425.5375,377.6986 425.5375,379.183 Q425.5375,380.6517 426.0219,381.4017 Q426.5063,382.1517 427.4594,382.1517 Q427.8969,382.1517 428.3188,381.9642 Q428.7406,381.7767 429.1781,381.3705 L429.1781,383.2923 Z " fill="#000000"/><text fill="#262626" font-family="sans-serif" font-size="11" lengthAdjust="spacing" textLength="35" x="454.65" y="382.8504">Admin</text><line style="stroke:#C6C6C6;stroke-width:1.0;" x1="395" x2="521" y1="400.4447" y2="400.4447"/><rect fill="none" height="6" style="stroke:#C82930;stroke-width:1.0;" width="6" x="402" y="419.347"/><text fill="#262626" font-family="sans-serif" font-size="11" lengthAdjust="spacing" textLength="83" x="423" y="424.6551">String adminId</text><rect fill="none" height="6" style="stroke:#C82930;stroke-width:1.0;" width="6" x="402" y="452.1517"/><text fill="#262626" font-family="sans-serif" font-size="11" lengthAdjust="spacing" textLength="60" x="423" y="457.4598">String role</text><line style="stroke:#C6C6C6;stroke-width:1.0;" x1="395" x2="521" y1="474.0541" y2="474.0541"/></g><!--class Fine--><g id="elem_Fine"><rect codeLine="32" fill="url(#g1jcefcxnt8pjk0)" height="190.0234" id="Fine" style="stroke:#C6C6C6;stroke-width:1.0;" width="132" x="118" y="960.49"/><rect fill="url(#g1jcefcxnt8pjk0)" height="42.8047" style="stroke:#C6C6C6;stroke-width:1.0;" width="132" x="118" y="960.49"/><ellipse cx="158.55" cy="981.8923" fill="#ADD1B2" rx="10" ry="10" style="stroke:#181818;stroke-width:1.0;"/><path d="M160.3781,986.1423 Q159.9719,986.3455 159.5188,986.4548 Q159.0656,986.5642 158.5813,986.5642 Q156.8,986.5642 155.8625,985.408 Q154.9406,984.2361 154.9406,982.033 Q154.9406,979.8142 155.8625,978.658 Q156.8,977.4861 158.5813,977.4861 Q159.0656,977.4861 159.5188,977.5955 Q159.9875,977.6892 160.3781,977.908 L160.3781,979.8298 Q159.9406,979.4236 159.5188,979.2361 Q159.0969,979.033 158.6594,979.033 Q157.7063,979.033 157.2219,979.7986 Q156.7375,980.5486 156.7375,982.033 Q156.7375,983.5017 157.2219,984.2517 Q157.7063,985.0017 158.6594,985.0017 Q159.0969,985.0017 159.5188,984.8142 Q159.9406,984.6267 160.3781,984.2205 L160.3781,986.1423 Z " fill="#000000"/><text fill="#262626" font-family="sans-serif" font-size="11" lengthAdjust="spacing" textLength="23" x="187.45" y="985.7004">Fine</text><line style="stroke:#C6C6C6;stroke-width:1.0;" x1="119" x2="249" y1="1003.2947" y2="1003.2947"/><rect fill="none" height="6" style="stroke:#C82930;stroke-width:1.0;" width="6" x="126" y="1022.197"/><text fill="#262626" font-family="sans-serif" font-size="11" lengthAdjust="spacing" textLength="69" x="147" y="1027.5051">String fineId</text><rect fill="none" height="6" style="stroke:#C82930;stroke-width:1.0;" width="6" x="126" y="1055.0017"/><text fill="#262626" font-family="sans-serif" font-size="11" lengthAdjust="spacing" textLength="85" x="147" y="1060.3098">double amount</text><rect fill="none" height="6" style="stroke:#C82930;stroke-width:1.0;" width="6" x="126" y="1087.8064"/><text fill="#262626" font-family="sans-serif" font-size="11" lengthAdjust="spacing" textLength="87" x="147" y="1093.1145">Date issueDate</text><rect fill="none" height="6" style="stroke:#C82930;stroke-width:1.0;" width="6" x="126" y="1120.6111"/><text fill="#262626" font-family="sans-serif" font-size="11" lengthAdjust="spacing" textLength="77" x="147" y="1125.9192">Date dueDate</text><line style="stroke:#C6C6C6;stroke-width:1.0;" x1="119" x2="249" y1="1142.5134" y2="1142.5134"/></g><!--reverse link Librarian to Admin--><g id="link_Librarian_Admin"><path d="M354.5833,213.4179 C380.6633,265.2279 404.17,311.91 427.06,357.38 " fill="none" id="Librarian-backto-Admin" style="stroke:#C6C6C6;stroke-width:1.0;"/><polygon fill="none" points="346.49,197.34,349.224,216.1157,359.9426,210.7202,346.49,197.34" style="stroke:#C6C6C6;stroke-width:1.0;"/></g><!--link Admin to Librarian--><g id="link_Admin_Librarian"><path codeLine="44" d="M444.05,357.46 C433.83,318.68 417.91,268.29 396,227.03 C390.68,217.01 394.564,221.9239 388.004,212.1539 " fill="none" id="Admin-to-Librarian" style="stroke:#C6C6C6;stroke-width:1.0;"/><polygon fill="none" points="377.97,197.21,383.0227,215.4985,392.9853,208.8092,377.97,197.21" style="stroke:#C6C6C6;stroke-width:1.0;"/><polygon fill="#262626" points="414.5605,241.2824,414.9709,248.8797,419.3582,247.1875,414.5605,241.2824" style="stroke:#262626;stroke-width:1.0;"/><text fill="#262626" font-family="sans-serif" font-size="12" lengthAdjust="spacing" textLength="58" x="435" y="249.1687">manages</text></g><!--link Book to Member--><g id="link_Book_Member"><path codeLine="40" d="M133.35,547.87 C141.04,579.01 149.2,612.09 156.68,642.4 " fill="none" id="Book-Member" style="stroke:#C6C6C6;stroke-width:1.0;"/><polygon fill="#262626" points="152.9584,599.5279,153.5073,591.9392,148.942,593.0659,152.9584,599.5279" style="stroke:#262626;stroke-width:1.0;"/><text fill="#262626" font-family="sans-serif" font-size="12" lengthAdjust="spacing" textLength="50" x="171" y="599.7987">borrows</text><text fill="#262626" font-family="sans-serif" font-size="12" lengthAdjust="spacing" textLength="22" x="101.916" y="576.9388">0..*</text><text fill="#262626" font-family="sans-serif" font-size="12" lengthAdjust="spacing" textLength="22" x="121.4335" y="621.9595">0..*</text></g><!--link Librarian to Book--><g id="link_Librarian_Book"><path codeLine="41" d="M215.09,156.82 C190.58,176.25 165.87,200.12 149,227.03 C136.75,246.56 129.3951,263.3174 122.7051,285.8874 " fill="none" id="Librarian-to-Book" style="stroke:#C6C6C6;stroke-width:1.0;stroke-dasharray:7.0,7.0;"/><polygon fill="#C6C6C6" points="121,291.64,127.3928,284.1478,122.4209,286.8462,119.7226,281.8743,121,291.64" style="stroke:#C6C6C6;stroke-width:1.0;"/><polygon fill="#262626" points="150.6718,248.267,156.7954,243.7514,152.9717,241.0145,150.6718,248.267" style="stroke:#262626;stroke-width:1.0;"/><text fill="#262626" font-family="sans-serif" font-size="12" lengthAdjust="spacing" textLength="58" x="172" y="249.1687">manages</text></g><!--link Librarian to Member--><g id="link_Librarian_Member"><path codeLine="42" d="M291.08,197.36 C280.06,322.46 259.27,536.34 240,612.66 C237.53,622.46 236.4205,626.7856 233.1105,636.7556 " fill="none" id="Librarian-to-Member" style="stroke:#C6C6C6;stroke-width:1.0;stroke-dasharray:7.0,7.0;"/><polygon fill="#C6C6C6" points="231.22,642.45,237.852,635.1688,232.7954,637.7047,230.2595,632.6481,231.22,642.45" style="stroke:#C6C6C6;stroke-width:1.0;"/><polygon fill="#262626" points="285.4768,424.29,288.7542,417.4236,284.0923,416.8086,285.4768,424.29" style="stroke:#262626;stroke-width:1.0;"/><text fill="#262626" font-family="sans-serif" font-size="12" lengthAdjust="spacing" textLength="58" x="305" y="424.4787">manages</text></g><!--reverse link Member to Fine--><g id="link_Member_Fine"><path codeLine="43" d="M184,877.72 C184,908.7 184,930.09 184,960.04 " fill="none" id="Member-backto-Fine" style="stroke:#C6C6C6;stroke-width:1.0;"/><polygon fill="none" points="184,865.72,180,871.72,184,877.72,188,871.72,184,865.72" style="stroke:#C6C6C6;stroke-width:1.0;"/><polygon fill="#262626" points="188,917.4744,190.3511,910.2383,185.6489,910.2383,188,917.4744" style="stroke:#262626;stroke-width:1.0;"/><text fill="#262626" font-family="sans-serif" font-size="12" lengthAdjust="spacing" textLength="38" x="207" y="917.6287">incurs</text><text fill="#262626" font-family="sans-serif" font-size="12" lengthAdjust="spacing" textLength="8" x="165.1469" y="894.6971">1</text><text fill="#262626" font-family="sans-serif" font-size="12" lengthAdjust="spacing" textLength="22" x="150.3922" y="939.6437">0..*</text></g><!--SRC=[XPB1JiCm38RlVGhJ2n9IAxZkC8c1a2O11_O4JcDQYoIUaXIOW7UdtTfrAI1oYhxO_l_yoLbio19Kw9MuelQuoxBAO0Ym4dc1ZmowLMoYPrT3v6We8TZ6Hdo2rflLOmAshJ8S6ahBQd9-cAL43A43V4KsgDXmt6qYnZPaNwER1xAA_CoFtSErJg13E_EejQSG4bQ9YrZ5NwQ5XhTpyNjM7Zrt5bDzC_B_B93T6jaHtOYcNtqSfQwrPGVq7idfluMnhvg9-Yx4QSuTEverFNTexD7IFGe1McdTaC8jHW8EeQL-TyBqGBhPv_141YEBwsCAsVwFv9TbUP53KOoxuQqMeCHxUGkmpAQBbENoyBKMOD5XJJ-FZ_rJmO3ognna4jfVSW7igjRtLOVmYk9pUPBSoPXl]--></g></svg>