<svg xmlns="http://www.w3.org/2000/svg" xmlns:xlink="http://www.w3.org/1999/xlink" contentStyleType="text/css" height="857.2917px" preserveAspectRatio="xMidYMid meet" style="width: 100%; height: 100%; max-width: 100%; position: absolute; top: 50%; left: 50%; transform: translate(-50%, -50%);" version="1.1" viewBox="0 0 620 857" width="620.8333px" zoomAndPan="magnify"><defs><linearGradient id="gwruou9mq4z4g0" x1="50%" x2="50%" y1="0%" y2="100%"><stop offset="0%" stop-color="#F5F5F5"/><stop offset="100%" stop-color="#F2F2F2"/></linearGradient><linearGradient id="gwruou9mq4z4g1" x1="50%" x2="50%" y1="0%" y2="100%"><stop offset="0%" stop-color="#33B2E2"/><stop offset="100%" stop-color="#009FDB"/></linearGradient><linearGradient id="gwruou9mq4z4g2" x1="50%" x2="50%" y1="0%" y2="100%"><stop offset="0%" stop-color="#F5F5F5"/><stop offset="100%" stop-color="#C2C2C2"/></linearGradient></defs><g><rect fill="url(#gwruou9mq4z4g0)" height="31.2174" style="stroke:url(#gwruou9mq4z4g0);stroke-width:1.0416666666666667;" width="586.4583" x="15.625" y="11.4583"/><ellipse cx="110.4167" cy="58.3008" fill="#0568AE" rx="10.4167" ry="10.4167" style="stroke:#007FAF;stroke-width:1.0416666666666667;"/><rect fill="url(#gwruou9mq4z4g1)" height="43.7174" rx="10.4167" ry="10.4167" style="stroke:#009FDB;stroke-width:1.0416666666666667;" width="127.0833" x="46.875" y="89.5508"/><text fill="#FFFFFF" font-family="Verdana" font-size="12.5" lengthAdjust="spacing" textLength="97.9167" x="61.4583" y="115.7369">Select member</text><rect fill="url(#gwruou9mq4z4g1)" height="43.7174" rx="10.4167" ry="10.4167" style="stroke:#009FDB;stroke-width:1.0416666666666667;" width="106.25" x="57.2917" y="154.1016"/><text fill="#FFFFFF" font-family="Verdana" font-size="12.5" lengthAdjust="spacing" textLength="77.0833" x="71.875" y="180.2877">Select book</text><ellipse cx="110.4167" cy="533.1055" fill="#0568AE" rx="10.4167" ry="10.4167" style="stroke:#007FAF;stroke-width:1.0416666666666667;"/><rect fill="url(#gwruou9mq4z4g1)" height="43.7174" rx="10.4167" ry="10.4167" style="stroke:#009FDB;stroke-width:1.0416666666666667;" width="177.0833" x="21.875" y="564.3555"/><text fill="#FFFFFF" font-family="Verdana" font-size="12.5" lengthAdjust="spacing" textLength="147.9167" x="36.4583" y="590.5416">Identify overdue books</text><line style="stroke:#0568AE;stroke-width:2.0833333333333335;" x1="15.625" x2="15.625" y1="11.4583" y2="845.4753"/><rect fill="url(#gwruou9mq4z4g1)" height="43.7174" rx="10.4167" ry="10.4167" style="stroke:#009FDB;stroke-width:1.0416666666666667;" width="176.0417" x="286.9792" y="218.6523"/><text fill="#FFFFFF" font-family="Verdana" font-size="12.5" lengthAdjust="spacing" textLength="146.875" x="301.5625" y="244.8385">Check book availability</text><polygon fill="url(#gwruou9mq4z4g2)" points="309.375,283.2031,440.625,283.2031,453.125,298.8118,440.625,314.4206,309.375,314.4206,296.875,298.8118,309.375,283.2031" style="stroke:#C2C2C2;stroke-width:1.0416666666666667;"/><text fill="#5A5A5A" font-family="Verdana" font-size="12.5" lengthAdjust="spacing" textLength="114.5833" x="317.7083" y="303.1392">Is book available?</text><text fill="#5A5A5A" font-family="Verdana" font-size="12.5" lengthAdjust="spacing" textLength="21.875" x="266.6667" y="287.5305">yes</text><text fill="#5A5A5A" font-family="Verdana" font-size="12.5" lengthAdjust="spacing" textLength="16.6667" x="461.4583" y="287.5305">no</text><rect fill="url(#gwruou9mq4z4g1)" height="43.7174" rx="10.4167" ry="10.4167" style="stroke:#009FDB;stroke-width:1.0416666666666667;" width="100" x="225" y="324.8372"/><text fill="#FFFFFF" font-family="Verdana" font-size="12.5" lengthAdjust="spacing" textLength="70.8333" x="239.5833" y="351.0234">Issue book</text><rect fill="url(#gwruou9mq4z4g1)" height="43.7174" rx="10.4167" ry="10.4167" style="stroke:#009FDB;stroke-width:1.0416666666666667;" width="131.25" x="209.375" y="389.388"/><text fill="#FFFFFF" font-family="Verdana" font-size="12.5" lengthAdjust="spacing" textLength="102.0833" x="223.9583" y="415.5741">Update records</text><rect fill="url(#gwruou9mq4z4g1)" height="43.7174" rx="10.4167" ry="10.4167" style="stroke:#009FDB;stroke-width:1.0416666666666667;" width="227.0833" x="361.4583" y="324.8372"/><text fill="#FFFFFF" font-family="Verdana" font-size="12.5" lengthAdjust="spacing" textLength="197.9167" x="376.0417" y="351.0234">Notify member of unavailability</text><polygon fill="url(#gwruou9mq4z4g2)" points="375,443.5221,387.5,456.0221,375,468.5221,362.5,456.0221,375,443.5221" style="stroke:#C2C2C2;stroke-width:1.0416666666666667;"/><ellipse cx="375" cy="500.8138" fill="none" rx="11.4583" ry="11.4583" style="stroke:#007FAF;stroke-width:1.0416666666666667;"/><ellipse cx="375" cy="500.8138" fill="none" rx="6.25" ry="6.25" style="stroke:#007FAF;stroke-width:1.0416666666666667;"/><rect fill="url(#gwruou9mq4z4g1)" height="43.7174" rx="10.4167" ry="10.4167" style="stroke:#009FDB;stroke-width:1.0416666666666667;" width="125" x="312.5" y="628.9063"/><text fill="#FFFFFF" font-family="Verdana" font-size="12.5" lengthAdjust="spacing" textLength="95.8333" x="327.0833" y="655.0924">Calculate fines</text><rect fill="url(#gwruou9mq4z4g1)" height="43.7174" rx="10.4167" ry="10.4167" style="stroke:#009FDB;stroke-width:1.0416666666666667;" width="122.9167" x="313.5417" y="693.457"/><text fill="#FFFFFF" font-family="Verdana" font-size="12.5" lengthAdjust="spacing" textLength="93.75" x="328.125" y="719.6431">Notify member</text><rect fill="url(#gwruou9mq4z4g1)" height="43.7174" rx="10.4167" ry="10.4167" style="stroke:#009FDB;stroke-width:1.0416666666666667;" width="169.7917" x="290.1042" y="758.0078"/><text fill="#FFFFFF" font-family="Verdana" font-size="12.5" lengthAdjust="spacing" textLength="140.625" x="304.6875" y="784.1939">Process fine payment</text><ellipse cx="375" cy="834.0169" fill="none" rx="11.4583" ry="11.4583" style="stroke:#007FAF;stroke-width:1.0416666666666667;"/><ellipse cx="375" cy="834.0169" fill="none" rx="6.25" ry="6.25" style="stroke:#007FAF;stroke-width:1.0416666666666667;"/><line style="stroke:#0568AE;stroke-width:2.0833333333333335;" x1="203.125" x2="203.125" y1="11.4583" y2="845.4753"/><line style="stroke:#0568AE;stroke-width:2.0833333333333335;" x1="592.7083" x2="592.7083" y1="11.4583" y2="845.4753"/><line style="stroke:#009FDB;stroke-width:3.125;" x1="110.4167" x2="110.4167" y1="68.7174" y2="89.5508"/><polygon fill="#009FDB" points="106.25,79.1341,110.4167,89.5508,114.5833,79.1341,110.4167,83.3008" style="stroke:#009FDB;stroke-width:1.0416666666666667;"/><line style="stroke:#009FDB;stroke-width:3.125;" x1="110.4167" x2="110.4167" y1="133.2682" y2="154.1016"/><polygon fill="#009FDB" points="106.25,143.6849,110.4167,154.1016,114.5833,143.6849,110.4167,147.8516" style="stroke:#009FDB;stroke-width:1.0416666666666667;"/><line style="stroke:#009FDB;stroke-width:3.125;" x1="110.4167" x2="110.4167" y1="543.5221" y2="564.3555"/><polygon fill="#009FDB" points="106.25,553.9388,110.4167,564.3555,114.5833,553.9388,110.4167,558.1055" style="stroke:#009FDB;stroke-width:1.0416666666666667;"/><line style="stroke:#009FDB;stroke-width:3.125;" x1="275" x2="275" y1="368.5547" y2="389.388"/><polygon fill="#009FDB" points="270.8333,378.9714,275,389.388,279.1667,378.9714,275,383.138" style="stroke:#009FDB;stroke-width:1.0416666666666667;"/><line style="stroke:#009FDB;stroke-width:3.125;" x1="296.875" x2="275" y1="298.8118" y2="298.8118"/><line style="stroke:#009FDB;stroke-width:3.125;" x1="275" x2="275" y1="298.8118" y2="324.8372"/><polygon fill="#009FDB" points="270.8333,314.4206,275,324.8372,279.1667,314.4206,275,318.5872" style="stroke:#009FDB;stroke-width:1.0416666666666667;"/><line style="stroke:#009FDB;stroke-width:3.125;" x1="453.125" x2="475" y1="298.8118" y2="298.8118"/><line style="stroke:#009FDB;stroke-width:3.125;" x1="475" x2="475" y1="298.8118" y2="324.8372"/><polygon fill="#009FDB" points="470.8333,314.4206,475,324.8372,479.1667,314.4206,475,318.5872" style="stroke:#009FDB;stroke-width:1.0416666666666667;"/><line style="stroke:#009FDB;stroke-width:3.125;" x1="275" x2="275" y1="433.1055" y2="456.0221"/><line style="stroke:#009FDB;stroke-width:3.125;" x1="275" x2="362.5" y1="456.0221" y2="456.0221"/><polygon fill="#009FDB" points="352.0833,451.8555,362.5,456.0221,352.0833,460.1888,356.25,456.0221" style="stroke:#009FDB;stroke-width:1.0416666666666667;"/><line style="stroke:#009FDB;stroke-width:3.125;" x1="475" x2="475" y1="368.5547" y2="456.0221"/><line style="stroke:#009FDB;stroke-width:3.125;" x1="475" x2="387.5" y1="456.0221" y2="456.0221"/><polygon fill="#009FDB" points="397.9167,451.8555,387.5,456.0221,397.9167,460.1888,393.75,456.0221" style="stroke:#009FDB;stroke-width:1.0416666666666667;"/><line style="stroke:#009FDB;stroke-width:3.125;" x1="375" x2="375" y1="262.3698" y2="283.2031"/><polygon fill="#009FDB" points="370.8333,272.7865,375,283.2031,379.1667,272.7865,375,276.9531" style="stroke:#009FDB;stroke-width:1.0416666666666667;"/><line style="stroke:#009FDB;stroke-width:3.125;" x1="375" x2="375" y1="468.5221" y2="489.3555"/><polygon fill="#009FDB" points="370.8333,478.9388,375,489.3555,379.1667,478.9388,375,483.1055" style="stroke:#009FDB;stroke-width:1.0416666666666667;"/><line style="stroke:#009FDB;stroke-width:3.125;" x1="375" x2="375" y1="672.6237" y2="693.457"/><polygon fill="#009FDB" points="370.8333,683.0404,375,693.457,379.1667,683.0404,375,687.207" style="stroke:#009FDB;stroke-width:1.0416666666666667;"/><line style="stroke:#009FDB;stroke-width:3.125;" x1="375" x2="375" y1="737.1745" y2="758.0078"/><polygon fill="#009FDB" points="370.8333,747.5911,375,758.0078,379.1667,747.5911,375,751.7578" style="stroke:#009FDB;stroke-width:1.0416666666666667;"/><line style="stroke:#009FDB;stroke-width:3.125;" x1="375" x2="375" y1="801.7253" y2="822.5586"/><polygon fill="#009FDB" points="370.8333,812.1419,375,822.5586,379.1667,812.1419,375,816.3086" style="stroke:#009FDB;stroke-width:1.0416666666666667;"/><line style="stroke:#009FDB;stroke-width:3.125;" x1="110.4167" x2="110.4167" y1="197.819" y2="203.0273"/><line style="stroke:#009FDB;stroke-width:3.125;" x1="110.4167" x2="375" y1="203.0273" y2="203.0273"/><line style="stroke:#009FDB;stroke-width:3.125;" x1="375" x2="375" y1="203.0273" y2="218.6523"/><polygon fill="#009FDB" points="370.8333,208.2357,375,218.6523,379.1667,208.2357,375,212.4023" style="stroke:#009FDB;stroke-width:1.0416666666666667;"/><line style="stroke:#009FDB;stroke-width:3.125;" x1="110.4167" x2="110.4167" y1="608.0729" y2="613.2813"/><line style="stroke:#009FDB;stroke-width:3.125;" x1="110.4167" x2="375" y1="613.2813" y2="613.2813"/><line style="stroke:#009FDB;stroke-width:3.125;" x1="375" x2="375" y1="613.2813" y2="628.9063"/><polygon fill="#009FDB" points="370.8333,618.4896,375,628.9063,379.1667,618.4896,375,622.6563" style="stroke:#009FDB;stroke-width:1.0416666666666667;"/><text fill="#009FDB" font-family="Verdana" font-size="12.5" lengthAdjust="spacing" textLength="56.25" x="81.25" y="31.3944">Librarian</text><text fill="#009FDB" font-family="Verdana" font-size="12.5" lengthAdjust="spacing" textLength="46.875" x="374.4792" y="31.3944">System</text><!--SRC=[ROzBQiGm44JtEaLdvxc2jSXYLeOG0aCEe4yf8qOVevO713vyDC8435bMLrElwgtU4K4wRFWfgedzm-kYYbTf5rnLgMA-8S1KYeWQHVvfdVD3YltMk2BkOhxUOHxZIkgfV53Q1r-R5DxHjF392NY_K2SdcXhu8eZcXNd34ThbzsfL1HMON2nBWS2WAUNn-vchT-reHDdHbiv89EjTxvzNyT-YnIADXFn4iGUMJsDKC5juDN0-eLjdPjTV9Him3vzMrMAFb0Fv2m00]--></g></svg>