<svg xmlns="http://www.w3.org/2000/svg" xmlns:xlink="http://www.w3.org/1999/xlink" contentStyleType="text/css"
     height="593px" preserveAspectRatio="xMidYMid meet"
     style="width: 100%; height: 100%; background: rgb(255, 255, 255); max-width: 100%; position: absolute; top: 50%; left: 50%; transform: translate(-50%, -50%);"
     version="1.1" viewBox="0 0 338 593" width="338px" zoomAndPan="magnify">
    <defs/>
    <g><!--cluster Library System-->
        <g id="cluster_Library System">
            <rect fill="none" height="580" rx="2.5" ry="2.5" style="stroke:#181818;stroke-width:1.0;" width="225.62"
                  x="107" y="7"/>
            <text fill="#000000" font-family="sans-serif" font-size="14" font-weight="bold" lengthAdjust="spacing"
                  textLength="118" x="160.81" y="21.9951">Library System
            </text>
        </g>
        <g id="elem_manageBooks">
            <ellipse cx="219.8143" cy="338.9969" fill="#F1F1F1" rx="73.8343" ry="17.1669"
                     style="stroke:#181818;stroke-width:0.5;"/>
            <text fill="#000000" font-family="sans-serif" font-size="14" lengthAdjust="spacing" textLength="103"
                  x="165.3143" y="342.7444">Manage Books
            </text>
        </g>
        <g id="elem_manageMembers">
            <ellipse cx="219.808" cy="409.9976" fill="#F1F1F1" rx="82.288" ry="18.8576"
                     style="stroke:#181818;stroke-width:0.5;"/>
            <text fill="#000000" font-family="sans-serif" font-size="14" lengthAdjust="spacing" textLength="124"
                  x="156.9705" y="413.1238">Manage Members
            </text>
        </g>
        <g id="elem_issueBook">
            <ellipse cx="219.8063" cy="56.9993" fill="#F1F1F1" rx="64.3963" ry="15.2793"
                     style="stroke:#181818;stroke-width:0.5;"/>
            <text fill="#000000" font-family="sans-serif" font-size="14" lengthAdjust="spacing" textLength="77"
                  x="178.3063" y="60.7468">Issue Book
            </text>
        </g>
        <g id="elem_returnBook">
            <ellipse cx="219.8107" cy="191.9961" fill="#F1F1F1" rx="67.8807" ry="15.9761"
                     style="stroke:#181818;stroke-width:0.5;"/>
            <text fill="#000000" font-family="sans-serif" font-size="14" lengthAdjust="spacing" textLength="87"
                  x="173.3107" y="195.7437">Return Book
            </text>
        </g>
        <g id="elem_manageFines">
            <ellipse cx="219.8081" cy="123.9956" fill="#F1F1F1" rx="71.1781" ry="16.6356"
                     style="stroke:#181818;stroke-width:0.5;"/>
            <text fill="#000000" font-family="sans-serif" font-size="14" lengthAdjust="spacing" textLength="96"
                  x="168.8081" y="127.7432">Manage Fines
            </text>
        </g>
        <g id="elem_searchCatalog">
            <ellipse cx="219.8098" cy="481.004" fill="#F1F1F1" rx="74.2198" ry="17.244"
                     style="stroke:#181818;stroke-width:0.5;"/>
            <text fill="#000000" font-family="sans-serif" font-size="14" lengthAdjust="spacing" textLength="104"
                  x="164.8098" y="484.7515">Search Catalog
            </text>
        </g>
        <g id="elem_viewHistory">
            <ellipse cx="219.8093" cy="265.0019" fill="#F1F1F1" rx="96.8093" ry="21.7619"
                     style="stroke:#181818;stroke-width:0.5;"/>
            <text fill="#000000" font-family="sans-serif" font-size="14" lengthAdjust="spacing" textLength="157"
                  x="141.3093" y="267.8485">View Borrowing History
            </text>
        </g>
        <g id="elem_generateReports">
            <ellipse cx="219.808" cy="551.9976" fill="#F1F1F1" rx="82.288" ry="18.8576"
                     style="stroke:#181818;stroke-width:0.5;"/>
            <text fill="#000000" font-family="sans-serif" font-size="14" lengthAdjust="spacing" textLength="124"
                  x="156.9705" y="555.1238">Generate Reports
            </text>
        </g><!--entity Librarian-->
        <g id="elem_Librarian">
            <ellipse cx="34.5" cy="133.35" fill="#F1F1F1" rx="8" ry="8" style="stroke:#181818;stroke-width:0.5;"/>
            <path d="M34.5,141.35 L34.5,168.35 M21.5,149.35 L47.5,149.35 M34.5,168.35 L21.5,183.35 M34.5,168.35 L47.5,183.35 "
                  fill="none" style="stroke:#181818;stroke-width:0.5;"/>
            <text fill="#000000" font-family="sans-serif" font-size="14" lengthAdjust="spacing" textLength="57" x="6"
                  y="197.8451">Librarian
            </text>
        </g><!--entity member-->
        <g id="elem_Member">
            <ellipse cx="34.5" cy="244.35" fill="#F1F1F1" rx="8" ry="8" style="stroke:#181818;stroke-width:0.5;"/>
            <path d="M34.5,252.35 L34.5,279.35 M21.5,260.35 L47.5,260.35 M34.5,279.35 L21.5,294.35 M34.5,279.35 L47.5,294.35 "
                  fill="none" style="stroke:#181818;stroke-width:0.5;"/>
            <text fill="#000000" font-family="sans-serif" font-size="14" lengthAdjust="spacing" textLength="57" x="6"
                  y="308.8451">Member
            </text>
        </g><!--entity Admin-->
        <g id="elem_Admin">
            <ellipse cx="34.5" cy="372.35" fill="#F1F1F1" rx="8" ry="8" style="stroke:#181818;stroke-width:0.5;"/>
            <path d="M34.5,380.35 L34.5,407.35 M21.5,388.35 L47.5,388.35 M34.5,407.35 L21.5,422.35 M34.5,407.35 L47.5,422.35 "
                  fill="none" style="stroke:#181818;stroke-width:0.5;"/>
            <text fill="#000000" font-family="sans-serif" font-size="14" lengthAdjust="spacing" textLength="43" x="13"
                  y="436.8451">Admin
            </text>
        </g><!--entity Guest-->
        <g id="elem_Guest">
            <ellipse cx="34.5" cy="483.35" fill="#F1F1F1" rx="8" ry="8" style="stroke:#181818;stroke-width:0.5;"/>
            <path d="M34.5,491.35 L34.5,518.35 M21.5,499.35 L47.5,499.35 M34.5,518.35 L21.5,533.35 M34.5,518.35 L47.5,533.35 "
                  fill="none" style="stroke:#181818;stroke-width:0.5;"/>
            <text fill="#000000" font-family="sans-serif" font-size="14" lengthAdjust="spacing" textLength="42" x="13.5"
                  y="547.8451">Guest
            </text>
        </g><!--link Librarian to manageBooks-->
        <g id="link_Librarian_manageBooks">
            <path d="M55.21,201.6 C57.89,207.08 60.55,212.66 63,218 C80.28,255.66 68.1,276.39 99,304 C114.19,317.57 128.576,324.3789 148.036,329.4789 "
                  fill="none" id="Librarian-to-manageBooks" style="stroke:#181818;stroke-width:1.0;"/>
            <polygon fill="#181818" points="153.84,331,146.1481,324.849,149.0033,329.7324,144.12,332.5877,153.84,331"
                     style="stroke:#181818;stroke-width:1.0;"/>
        </g><!--link Librarian to manageMembers-->
        <g id="link_Librarian_manageMembers">
            <path d="M56.2,201.56 C58.7,206.99 61.05,212.58 63,218 C87.08,284.96 50.35,322.07 99,374 C111.55,387.39 123.1293,394.1252 140.6993,399.4652 "
                  fill="none" id="Librarian-to-manageMembers" style="stroke:#181818;stroke-width:1.0;"/>
            <polygon fill="#181818"
                     points="146.44,401.21,138.9921,394.7657,141.6561,399.756,136.6658,402.42,146.44,401.21"
                     style="stroke:#181818;stroke-width:1.0;"/>
        </g><!--link Librarian to issueBook-->
        <g id="link_Librarian_issueBook">
            <path d="M61.67,124.68 C71.99,112.05 84.78,98.95 99,90 C118.54,77.7 136.8197,71.2518 158.2997,66.3618 "
                  fill="none" id="Librarian-to-issueBook" style="stroke:#181818;stroke-width:1.0;"/>
            <polygon fill="#181818" points="164.15,65.03,154.4866,63.1276,159.2747,66.1399,156.2624,70.928,164.15,65.03"
                     style="stroke:#181818;stroke-width:1.0;"/>
        </g><!--link Librarian to returnBook-->
        <g id="link_Librarian_returnBook">
            <path d="M63.34,167.4 C89.58,171.56 123.7536,176.9633 156.6536,182.1633 " fill="none"
                  id="Librarian-to-returnBook" style="stroke:#181818;stroke-width:1.0;"/>
            <polygon fill="#181818"
                     points="162.58,183.1,154.3148,177.744,157.6413,182.3194,153.0659,185.6459,162.58,183.1"
                     style="stroke:#181818;stroke-width:1.0;"/>
        </g><!--link Librarian to manageFines-->
        <g id="link_Librarian_manageFines">
            <path d="M63.34,157.08 C90.48,151.3 126.5812,143.6177 160.0712,136.4977 " fill="none"
                  id="Librarian-to-manageFines" style="stroke:#181818;stroke-width:1.0;"/>
            <polygon fill="#181818"
                     points="165.94,135.25,156.3049,133.209,161.0493,136.2898,157.9686,141.0341,165.94,135.25"
                     style="stroke:#181818;stroke-width:1.0;"/>
        </g><!--link Librarian to searchCatalog-->
        <g id="link_Librarian_searchCatalog">
            <path d="M56.56,201.44 C59,206.89 61.24,212.51 63,218 C94.31,315.69 31.23,368.98 99,446 C112.1,460.89 125.3409,468.0605 144.4009,473.1205 "
                  fill="none" id="Librarian-to-searchCatalog" style="stroke:#181818;stroke-width:1.0;"/>
            <polygon fill="#181818"
                     points="150.2,474.66,142.5277,468.4846,145.3674,473.3771,140.475,476.2168,150.2,474.66"
                     style="stroke:#181818;stroke-width:1.0;"/>
        </g><!--link member to returnBook-->
        <g id="link_Member_returnBook">
            <path d="M63.41,249.36 C73.99,241 86.5,232.22 99,226 C120.19,215.45 139.359,209.1546 161.009,203.7446 "
                  fill="none" id="Member-to-returnBook" style="stroke:#181818;stroke-width:1.0;"/>
            <polygon fill="#181818"
                     points="166.83,202.29,157.1288,200.5912,161.9792,203.5022,159.0682,208.3525,166.83,202.29"
                     style="stroke:#181818;stroke-width:1.0;"/>
        </g><!--link member to manageFines-->
        <g id="link_Member_manageFines">
            <path d="M54.92,235.47 C70.98,204.2 92.21,164.44 99,159 C115.66,145.66 131.4225,138.8687 151.6625,133.7587 "
                  fill="none" id="Member-to-manageFines" style="stroke:#181818;stroke-width:1.0;"/>
            <polygon fill="#181818"
                     points="157.48,132.29,147.7747,130.6148,152.6321,133.5139,149.733,138.3714,157.48,132.29"
                     style="stroke:#181818;stroke-width:1.0;"/>
        </g><!--link member to searchCatalog-->
        <g id="link_Member_searchCatalog">
            <path d="M50.34,312.44 C54.48,323.27 58.95,335.09 63,346 C79.43,390.29 64.59,413.64 99,446 C113.68,459.81 127.7086,466.6692 146.9986,471.7592 "
                  fill="none" id="Member-to-searchCatalog" style="stroke:#181818;stroke-width:1.0;"/>
            <polygon fill="#181818"
                     points="152.8,473.29,145.1184,467.1262,147.9655,472.0143,143.0773,474.8614,152.8,473.29"
                     style="stroke:#181818;stroke-width:1.0;"/>
        </g><!--link member to viewHistory-->
        <g id="link_Member_viewHistory">
            <path d="M63.34,272.63 C80.07,271.81 96.4271,271.0026 118.9571,269.9026 " fill="none"
                  id="Member-to-viewHistory" style="stroke:#181818;stroke-width:1.0;"/>
            <polygon fill="#181818"
                     points="124.95,269.61,115.7656,266.0537,119.9559,269.8538,116.1558,274.0441,124.95,269.61"
                     style="stroke:#181818;stroke-width:1.0;"/>
        </g><!--link Admin to manageBooks-->
        <g id="link_Admin_manageBooks">
            <path d="M56.38,391.96 C68.64,386.28 84.51,379.28 99,374 C121.8,365.68 141.8001,359.5501 163.5901,353.4801 "
                  fill="none" id="Admin-to-manageBooks" style="stroke:#181818;stroke-width:1.0;"/>
            <polygon fill="#181818"
                     points="169.37,351.87,159.6267,350.4319,164.5534,353.2118,161.7735,358.1384,169.37,351.87"
                     style="stroke:#181818;stroke-width:1.0;"/>
        </g><!--link Admin to manageMembers-->
        <g id="link_Admin_manageMembers">
            <path d="M56.17,402.9 C76.3,403.78 102.2157,404.9083 132.4457,406.2283 " fill="none"
                  id="Admin-to-manageMembers" style="stroke:#181818;stroke-width:1.0;"/>
            <polygon fill="#181818"
                     points="138.44,406.49,129.6231,402.1012,133.4448,406.2719,129.2741,410.0936,138.44,406.49"
                     style="stroke:#181818;stroke-width:1.0;"/>
        </g><!--link Admin to generateReports-->
        <g id="link_Admin_generateReports">
            <path d="M55.1,440.49 C71.16,471.43 92.29,510.61 99,516 C113.89,527.98 126.951,534.2867 145.221,539.6267 "
                  fill="none" id="Admin-to-generateReports" style="stroke:#181818;stroke-width:1.0;"/>
            <polygon fill="#181818"
                     points="150.98,541.31,143.4636,534.9457,146.1808,539.9073,141.2193,542.6245,150.98,541.31"
                     style="stroke:#181818;stroke-width:1.0;"/>
        </g><!--link Guest to searchCatalog-->
        <g id="link_Guest_searchCatalog">
            <path d="M55.82,509.45 C80.61,505.12 117.7292,498.6405 153.3492,492.4305 " fill="none"
                  id="Guest-to-searchCatalog" style="stroke:#181818;stroke-width:1.0;"/>
            <polygon fill="#181818"
                     points="159.26,491.4,149.7067,489.0052,154.3343,492.2587,151.0807,496.8863,159.26,491.4"
                     style="stroke:#181818;stroke-width:1.0;"/>
        </g><!--SRC=[VPB1JiCm44Jl-OfLJt3eBo014WM9Nbg9-pPTt1M9ZTOELOJuTvArI-mqmhUPDzwrHcxeFK1m86nE0OuiL0Tsji8wE85NFWWAuqLlgJsG975_RFa2DXtvK5NZRRIc8LZ5gptiUn-eNS5t1SEvsQ95G_3Wt8U_1VJGgg6wICHLUIOvCVNYVHV7Q897EQf8TnGwiHCMrHDFEvxOKhv1TKpi2QK-mIC6R9pHZ5ShEJ7rndGUjeYuCri3p-o7CdfDVmqewPZTa2N1GB2ZJoSXxZN9J5wbqR_MORs-kofeYURLbBmifcIpLfO6JusKzBgB-8IbkHcP3ytGlnFdPUhNMsndJl9c9ZQlVQJwXHUUylCB]-->
    </g>
</svg>